<?xml version="1.0" standalone="no"?><!DOCTYPE svg PUBLIC "-//W3C//DTD SVG 1.1//EN" "http://www.w3.org/Graphics/SVG/1.1/DTD/svg11.dtd"><svg t="1563784296914" class="icon" viewBox="0 0 1024 1024" version="1.1" xmlns="http://www.w3.org/2000/svg" p-id="3464" xmlns:xlink="http://www.w3.org/1999/xlink" width="200" height="200"><defs><style type="text/css"></style></defs><path d="M962.133333 509.866667c0 247.466667-200.533333 448-448 448s-448-200.533333-448-448 200.533333-448 448-448 448 200.533333 448 448z m-569.6 187.733333l349.866667-352c8.533333-8.533333 8.533333-21.333333 0-29.866667s-21.333333-8.533333-29.866667 0L379.733333 652.8l-128-147.2c-8.533333-8.533333-21.333333-10.666667-29.866666-2.133333-8.533333 8.533333-10.666667 21.333333-2.133334 29.866666l142.933334 164.266667c4.266667 4.266667 8.533333 6.4 14.933333 6.4 6.4 0 10.666667-2.133333 14.933333-6.4z" fill="#666666" p-id="3465"></path></svg>